<?xml version="1.0" encoding="utf-8"?>
<!-- Generator: Adobe Illustrator 28.3.0, SVG Export Plug-In . SVG Version: 6.00 Build 0)  -->
<svg version="1.1" id="Layer_1" xmlns="http://www.w3.org/2000/svg" xmlns:xlink="http://www.w3.org/1999/xlink" x="0px" y="0px"
	 viewBox="0 0 512 512" style="enable-background:new 0 0 512 512;" xml:space="preserve">
<style type="text/css">
	.st0{fill:#01449D;}
</style>
<path class="st0" d="M255.7-0.3c1.5,0,1.5,0,2.9,0C273-0.3,286.9,0.2,301,3c1.3,0.2,1.3,0.2,2.7,0.5C352.4,12.3,397.4,35.7,433,70
	c1,0.9,1,0.9,2,1.9c9.5,9.1,18.2,18.4,26,29.1c0.9,1.2,1.7,2.3,2.6,3.5c6,8.2,11.4,16.7,16.4,25.5c0.4,0.7,0.8,1.4,1.2,2.1
	c13,23.1,21.7,48.3,27.1,74.2c0.1,0.7,0.3,1.4,0.4,2.2c3,15.6,3.6,31.3,3.6,47.2c0,1.5,0,1.5,0,2.9c0,14.3-0.6,28.3-3.3,42.4
	c-0.2,0.9-0.3,1.8-0.5,2.7c-8.8,48.7-32.3,93.7-66.5,129.3c-0.6,0.7-1.3,1.3-1.9,2c-9.1,9.5-18.4,18.2-29.1,26
	c-1.2,0.9-2.3,1.7-3.5,2.6c-8.2,6-16.7,11.4-25.5,16.4c-0.7,0.4-1.4,0.8-2.1,1.2c-23.1,13-48.3,21.7-74.2,27.1
	c-0.7,0.1-1.4,0.3-2.2,0.4c-15.6,3-31.3,3.6-47.2,3.6c-1,0-1.9,0-2.9,0c-14.3,0-28.3-0.6-42.4-3.3c-0.9-0.2-1.8-0.3-2.7-0.5
	c-48.7-8.8-93.7-32.3-129.3-66.5c-0.7-0.6-1.3-1.3-2-1.9c-9.5-9.1-18.2-18.4-26-29.1c-0.9-1.2-1.7-2.3-2.6-3.5
	c-6-8.2-11.4-16.7-16.4-25.5c-0.4-0.7-0.8-1.4-1.2-2.1c-13-23.1-21.7-48.3-27.1-74.2c-0.2-1.1-0.2-1.1-0.4-2.2
	c-3-15.6-3.6-31.3-3.6-47.2c0-1,0-1.9,0-2.9c0-14.3,0.6-28.3,3.3-42.4c0.2-1.3,0.2-1.3,0.5-2.7C12.3,159.6,35.7,114.6,70,79
	c0.6-0.7,1.3-1.3,1.9-2c9.1-9.5,18.4-18.2,29.1-26c1.2-0.9,2.3-1.7,3.5-2.6c8.2-6,16.7-11.4,25.5-16.4c0.7-0.4,1.4-0.8,2.1-1.2
	c23.1-13,48.3-21.7,74.2-27.1c1.1-0.2,1.1-0.2,2.2-0.4C224.2,0.3,239.8-0.4,255.7-0.3z M188.9,140.2c-17.6,20.7-24.1,45-21.9,71.8
	c2.9,22.1,14.5,42.6,31.4,57c21.3,16.3,45.4,23.1,72.1,19.6c23.7-4,44.9-17.4,58.8-36.9c13.9-20.4,19.1-44.2,15-68.6
	c-4.8-23.5-18.4-44.2-38.3-57.6C268.4,100.8,219.5,107.5,188.9,140.2z M214,295c-0.8,0.2-1.5,0.4-2.3,0.5
	c-45.5,11-85.1,42-109.5,81.5C93,391.2,93,391.2,88,407c1.3,2,1.3,2,3.2,3.8c1.1,1.1,1.1,1.1,2.2,2.1c0.8,0.7,1.6,1.5,2.4,2.2
	c0.8,0.8,1.6,1.5,2.4,2.3c5.7,5.5,11.5,10.7,17.9,15.5c0.6,0.4,1.1,0.8,1.7,1.3c9.1,6.9,18.4,13.1,28.3,18.7c1,0.6,1,0.6,1.9,1.1
	c28.7,16.5,63.7,26.9,96.9,27.1c0.8,0,1.6,0,2.5,0c25.5,0.2,25.5,0.2,50.7-3.2c0.9-0.2,1.9-0.4,2.9-0.6
	c48.5-10.5,88.8-35,123.1-70.4c-15-43.3-48.9-78.4-89.4-98.8c-24.5-11.9-50.7-17.6-77.9-17.5c-0.8,0-1.6,0-2.4,0
	C240.5,290.7,227.4,291.8,214,295z"/>
</svg>
